<?xml version="1.0"?><svg xmlns="http://www.w3.org/2000/svg" xmlns:xlink="http://www.w3.org/1999/xlink" version="1.1" viewBox="0 0 512 512" style="enable-background:new 0 0 512 512;" xml:space="preserve"><g id="_x31_0_x2C__window_x2C__glass_x2C__frame_x2C__furniture_and_household_x2C__interior"><g><path style="fill:#3A98FF;" d="M421,111H91c-5.522,0-10,4.478-10,10v270c0,5.522,4.478,10,10,10h330c5.522,0,10-4.478,10-10V121    C431,115.478,426.522,111,421,111z M411,246H266V131h145V246z M246,131v115H101V131H246z M101,266h145v115H101V266z M266,381V266    h145v115H266z"/><path style="fill:#283954;" d="M501,81c5.522,0,10-4.478,10-10V11c0-5.523-4.478-10-10-10H11C5.477,1,1,5.477,1,11v60    c0,5.522,4.477,10,10,10h20v350H11c-5.523,0-10,4.478-10,10v60c0,5.522,4.477,10,10,10h490c5.522,0,10-4.478,10-10v-60    c0-5.522-4.478-10-10-10h-20V81H501z M21,21h470v40c-18.68,0-434.92,0-470,0V21z M491,491H21v-40h470V491z M461,431H51V81h410V431    z"/></g></g><g id="Layer_1"/></svg>